<svg width="138" height="40" viewBox="0 0 138 40" fill="none" xmlns="http://www.w3.org/2000/svg">
<g clip-path="url(#clip0_1566_31334)">
<path d="M36 2.6062H46.7C51.5 2.6062 55.6 5.7062 55.6 11.3062C55.6 16.9062 51.5 20.0062 46.7 20.0062H40.2V29.7062H36V2.6062ZM46.3 16.3062C49.4 16.3062 51.4 14.3062 51.4 11.3062C51.4 8.3062 49.4 6.3062 46.3 6.3062H40.1V16.3062H46.3Z" fill="black"/>
<path d="M57.1016 10.5937H61.2016V13.1937C62.8016 11.0937 65.3016 10.2937 68.6016 10.2937V14.5937C67.7016 14.2937 67.0016 14.1937 66.1016 14.1937C63.6016 14.1937 61.2016 16.1937 61.2016 20.0937V29.6937H57.1016V10.5937Z" fill="black"/>
<path d="M68.5 20.0968C68.5 14.4968 73.1 9.99683 78.7 9.99683C84.3 9.99683 88.9 14.4968 88.9 20.0968C88.9 25.6968 84.3 30.1968 78.7 30.1968C73 30.1968 68.5 25.6968 68.5 20.0968ZM84.6 20.0968C84.6 16.4968 82 13.7968 78.6 13.7968C75.2 13.7968 72.7 16.4968 72.7 20.0968C72.7 23.5968 75.3 26.3968 78.6 26.2968C82 26.3968 84.6 23.5968 84.6 20.0968Z" fill="black"/>
<path d="M90.7969 10.5937H94.8969V13.2937C96.4969 11.4937 98.5969 10.2937 101.897 10.2937C107.097 10.2937 110.997 14.5937 110.997 20.1937C110.997 25.6937 107.097 29.9937 101.897 29.9937C98.4969 29.9937 96.4969 28.7937 94.8969 26.9937V39.3937H90.7969V10.5937ZM106.997 20.0937C106.997 16.4937 104.397 13.7937 100.997 13.7937C97.5969 13.7937 94.8969 16.4937 94.8969 20.0937C94.8969 23.6937 97.4969 26.3937 100.997 26.3937C104.397 26.3937 106.997 23.6937 106.997 20.0937Z" fill="black"/>
<path d="M131.498 19.7968C131.498 20.2968 131.498 20.6968 131.498 21.1968H115.598C115.998 24.7968 118.698 26.7968 121.898 26.7968C124.298 26.7968 126.298 25.7968 127.598 24.1968L130.098 26.2968C128.298 28.7968 125.198 30.0968 121.898 30.0968C116.198 30.0968 111.898 25.6968 111.898 20.0968C111.898 14.3968 116.198 9.99683 121.898 9.99683C127.398 9.99683 131.398 13.7968 131.498 19.7968ZM115.698 18.4968H127.898C127.198 15.0968 124.998 13.1968 121.798 13.1968C118.598 13.1968 116.198 15.2968 115.698 18.4968Z" fill="black"/>
<path d="M137.197 0.699951H133.297V29.7H137.197V0.699951Z" fill="black"/>
<path d="M21.5 2.7937V10.0937L7.2 18.2937L0 14.1937V6.9937L7.2 11.0937L21.5 2.7937Z" fill="black"/>
<path d="M28.6031 14.1921V21.3921L14.3031 29.6921L7.20312 25.4921V18.2921L14.3031 22.4921L28.6031 14.1921Z" fill="black"/>
</g>
<defs>
<clipPath id="clip0_1566_31334">
<rect width="137.2" height="38.6" fill="white" transform="translate(0 0.699951)"/>
</clipPath>
</defs>
</svg>
